<svg xmlns="http://www.w3.org/2000/svg" viewBox="0 0 60 60.08"><defs><style>.cls-1{fill:#222;}.cls-2{fill:#e5d900;}.cls-3{opacity:0.3;}.cls-4{fill:#0083c7;}.cls-5{fill:#fcfcfa;}</style></defs><g id="Layer_2" data-name="Layer 2"><g id="Layer_1-2" data-name="Layer 1"><path class="cls-1" d="M51.24,47.89,60,58.8,46.7,54.52Z"/><path class="cls-2" d="M49.49,28.71l-.25,2.58,1.88-1.81L50.63,32l2.06-1.62-.78,2.48,2.24-1.36-1.09,2.36,2.4-1L54,35l2.54-.68-1.75,1.94L57.45,36l-2,1.65,2.62.1-2.24,1.35,2.58.45L56,40.6l2.51.77L56,42.19l2.4,1.13-2.59.52L58,45.23l-2.64.23,2.06,1.64L54.8,47l1.85,1.87L54,48.51l1.64,2.06-2.57-.65,1.4,2.21L52,51.22l1.18,2.35-2.38-1.15.94,2.44-2.27-1.35L50.21,56l-2.14-1.55L48.56,57l-2-1.74.26,2.61L45,56l0,2.61-1.67-2-.17,2.61-1.51-2.15-.37,2.59L40,57.38l-.58,2.55-1.15-2.36-.78,2.51-1-2.44-1,2.44-.77-2.51-1.15,2.36-.58-2.55-1.33,2.27-.38-2.59-1.5,2.15-.17-2.61-1.67,2L28,56l-1.83,1.89.26-2.61-2,1.74L25,54.47,22.83,56l.71-2.51-2.26,1.35.94-2.44-2.38,1.15L21,51.22l-2.48.91,1.41-2.22-2.57.66Z"/><path class="cls-1" d="M8.54,37.63,45.12,25.75l-.49,2.55,2.06-1.61-.78,2.47,2.23-1.36-1.08,2.36,2.4-1.05L48,31.29l2.53-.68-1.74,1.94,2.61-.29-2,1.65L52,34,49.8,35.36l2.58.46-2.4,1,2.52.76L50,38.47l2.39,1.12-2.59.53L52,41.51l-2.64.22,2.06,1.65-2.65-.09,1.86,1.87L48,44.79l1.64,2.05-2.56-.65,1.4,2.22L46,47.49l1.18,2.35-2.39-1.15.95,2.45-2.27-1.37.71,2.52-2.13-1.55.49,2.57-2-1.73.26,2.6L39,52.29l0,2.61-1.67-2-.17,2.61-1.5-2.15-.38,2.59L34,53.65l-.59,2.55-1.15-2.35-.78,2.5-1-2.44-1,2.44-.78-2.5L27.63,56.2l-.58-2.55-1.33,2.27-.38-2.59-1.49,2.16-.18-2.61-1.67,2,0-2.61-1.83,1.89.26-2.61-2,1.73L19,50.74,16.83,52.3l.71-2.53-2.26,1.36.94-2.44-2.38,1.15L15,47.49l-2.49.92,1.41-2.22-2.57.65L13,44.78l-2.63.38,1.86-1.87-2.65.08,2.06-1.64L9,41.51l2.24-1.39-2.59-.53,2.39-1.12Z"/><g class="cls-3"><path class="cls-4" d="M58.05,2.33c-3.6-4.51-10.25-2.28-14.84,5s-8,20-8,20,15.53,2.55,20.13-4.71S61.65,6.85,58.05,2.33"/><path class="cls-4" d="M1.92,6.89C-1.62,11.23,0,19.28,4.54,26.18s19.78,4.31,19.78,4.31-3.3-12.08-7.81-19-11-9-14.59-4.63"/></g><path class="cls-2" d="M31.61,23.23l1-1.8.34,2L34,21.7l.21,2,1.19-1.67.07,2.05,1.31-1.59-.1,2.05,1.45-1.47-.29,2,1.59-1.32-.51,2,1.73-1.13-.74,1.91,1.85-.91-1,1.79,2-.65-1.24,1.64,2-.37-1.46,1.45,2.07-.09-1.64,1.25,2.06.18-1.79,1,2,.42-1.9.83,2,.63-2,.7,1.89.88-2,.49,1.79,1.08-2.08.28,1.67,1.25-2.1.06,1.52,1.42-2.09-.15,1.37,1.57L40.79,41l1.2,1.7-2-.56,1,1.8-2-.75.85,1.89L38,44.13l.66,2L36.91,45l.49,2-1.67-1.25.3,2-1.55-1.4.1,2.07-1.41-1.53L33.09,49l-1.27-1.65-.27,2-1.12-1.75-.45,2L29,47.84l-.64,2L27.6,47.9l-.79,1.92-.62-2-1,1.84-.46-2-1.11,1.75-.27-2L22.13,49,22,46.94l-1.42,1.53.11-2.07-1.54,1.4.28-2L17.81,47l.48-2-1.78,1.1.67-2-1.88.93.86-1.89-2,.75,1-1.8-2,.56Z"/><path class="cls-1" d="M7.88,31.12l1.72-.61-1.67-.77,1.78-.44-1.59-.94,1.8-.25L8.45,27l1.91,0L9,25.72l1.8.21L9.69,24.5l1.75.46-.95-1.57,1.68.69-.74-1.68,1.57.91-.53-1.77,1.46,1.09-.33-1.81,1.34,1.24-.16-1.84L16,21.59V19.74l1.11,1.46.14-1.84,1,1.55.27-1.83.89,1.6.38-1.8.81,1.65.47-1.78.72,1.7.56-1.76L23,20.42l.64-1.73.56,1.76.72-1.7.47,1.78.8-1.65.39,1.8.89-1.6.28,1.83,1-1.55.15,1.84L30,19.74v1.75l1.21-1.4L31.06,22l1.33-1.28-.33,1.86,1.44-1.11L33,23.25l1.56-.92L33.8,24l1.65-.7-.94,1.6,1.74-.46-1.14,1.46,1.77-.22L35.57,27l1.79,0-1.45,1.11,1.78.24-1.56.93,1.74.44-1.64.76,1.7.61-1.7.68,1.63.83-1.75.5,1.55,1-1.78.33,1.46,1.14-1.81.15L36.88,37l-1.81,0,1.23,1.41-1.8-.22,1.1,1.53-1.78-.39,1,1.62-1.73-.56.8,1.71-1.67-.73.66,1.78-1.6-.89.49,1.84-1.51-1,.32,1.88-1.41-1.2.15,1.9L28,44.26l0,2-1.18-1.47-.21,1.9-1-1.58L25.15,47l-.88-1.69-.56,1.84L23,45.36l-.72,1.77-.56-1.84L20.82,47l-.39-1.88-1.05,1.58-.2-1.9L18,46.25l0-1.92-1.31,1.35.15-1.93L15.37,45l.33-1.89-1.54,1.06.5-1.85-1.62.9.66-1.79-1.7.73.83-1.72L11.06,41l1-1.63-1.81.39,1.12-1.53-1.83.22L10.78,37,8.94,37l1.37-1.28L8.48,35.6,10,34.46l-1.82-.33,1.58-1L8,32.63,9.6,31.8Z"/><ellipse class="cls-5" cx="15.4" cy="30.5" rx="5.41" ry="5.43"/><ellipse class="cls-5" cx="25.36" cy="31.11" rx="5.41" ry="5.43" transform="translate(-10.77 13.63) rotate(-25)"/><path class="cls-1" d="M34.32,14.91c-5.48-.14-8.75,1.9-10.29,6-.22.59.7.84,1,.27,1.28-2.58,3.48-5.56,9.31-5.25h0a.51.51,0,0,0,0-1"/><path class="cls-1" d="M15.84,22.28c-3.77-3.93-7.54-4.76-11.58-2.94-.58.27-.1,1.09.5.88,2.76-.94,6.45-1.51,10.34,2.78h0c.45.44,1.18-.28.73-.72"/><ellipse class="cls-1" cx="16.53" cy="30.96" rx="3.1" ry="3.11"/><ellipse class="cls-1" cx="24.28" cy="31.03" rx="3.29" ry="3.19" transform="translate(-10.84 13.17) rotate(-25)"/></g></g></svg>