<svg xmlns="http://www.w3.org/2000/svg" xmlns:xlink="http://www.w3.org/1999/xlink" viewBox="0 0 512.69 534.96"><defs><style>.cls-1,.cls-2,.cls-4{stroke:#fc0;}.cls-1,.cls-2,.cls-3,.cls-4{stroke-linecap:round;stroke-linejoin:round;}.cls-1,.cls-2{stroke-width:4.05px;}.cls-1{fill:url(#radial-gradient);}.cls-2{fill:url(#radial-gradient-2);}.cls-3{stroke-width:4.16px;fill:url(#radial-gradient-3);stroke:url(#radial-gradient-4);}.cls-4{stroke-width:4.16px;fill:url(#radial-gradient-5);}.cls-5{stroke-miterlimit:16.67;stroke-width:4.17px;fill:url(#radial-gradient-6);stroke:url(#radial-gradient-7);}</style><radialGradient id="radial-gradient" cx="3.6" cy="563.42" r="27.64" gradientTransform="matrix(3.72, -1.05, -0.34, -1.34, 318.5, 818.3)" gradientUnits="userSpaceOnUse"><stop offset="0" stop-color="#a0691a"/><stop offset="1" stop-color="#56491d"/></radialGradient><radialGradient id="radial-gradient-2" cx="75.25" cy="499.88" r="25.5" gradientTransform="matrix(5.66, 0, 0, -1.28, -176.29, 713.27)" gradientUnits="userSpaceOnUse"><stop offset="0" stop-color="#fff500"/><stop offset="1" stop-color="#ecca23"/></radialGradient><radialGradient id="radial-gradient-3" cx="74.12" cy="927.15" r="58.94" gradientTransform="matrix(7.13, -1.91, -1, -3.72, 735.06, 3855.47)" gradientUnits="userSpaceOnUse"><stop offset="0" stop-color="#dc9124"/><stop offset="1" stop-color="#907a30"/></radialGradient><radialGradient id="radial-gradient-4" cx="245.42" cy="251.13" r="33.72" gradientTransform="matrix(3.55, -0.95, -0.22, -0.81, -476.36, 957.56)" xlink:href="#radial-gradient-2"/><radialGradient id="radial-gradient-5" cx="62.71" cy="724.97" r="30.28" gradientTransform="matrix(5.86, -1.65, -0.49, -1.92, 342.88, 1603.16)" xlink:href="#radial-gradient-3"/><radialGradient id="radial-gradient-6" cx="38.11" cy="998.28" r="23" gradientTransform="matrix(3.91, -2.24, -3.12, -4.47, 3382.83, 4692.29)" xlink:href="#radial-gradient-2"/><radialGradient id="radial-gradient-7" cx="101.65" cy="976.48" r="23" gradientTransform="matrix(4.61, -0.19, -0.22, -5.39, 148.47, 5473.86)" xlink:href="#radial-gradient-2"/></defs><g id="Layer_2" data-name="Layer 2"><g id="Layer_1-2" data-name="Layer 1"><g id="layer1"><g id="g22841"><g id="g22809"><path id="path22761" class="cls-1" d="M249.56,2c-85,0-153.7,23-153.7,51.06,0,7,4.43,13.78,12.2,19.87,27.29-16.83,80.28-28.41,141.5-28.41S364,56.13,391.24,73c7.77-6.09,12-12.84,12-19.87C403.27,25,334.56,2,249.56,2Z"/><path id="path22750" class="cls-2" d="M249.74,44.55c-61.22,0-114.39,11.58-141.68,28.41,23.31,18.26,77.93,31,141.68,31s118.19-12.75,141.5-31C364,56.13,311,44.55,249.74,44.55Z"/><path id="path22708" class="cls-3" d="M502.74,290.18c0,87-45.12,163.5-112.4,208.17-15,19.59-70.94,34.53-137.93,34.53s-122.94-14.94-137.92-34.53C47.2,453.68,2.08,377.16,2.08,290.18,2.08,194.89,10.2,141,88.61,98.77c0,20.77,98.09,9.24,163.8,9.24s158.5,11.54,158.47-9.24C489.28,141,502.74,194.89,502.74,290.18Z"/><path id="path22736" class="cls-4" d="M102.05,38.79c-11.32,9.26-20.68,21.82-20.87,35.1s1.76,17.31,7.43,24.88c0,29.63,71.87,54.41,161.13,54.41S410.92,128.4,410.88,98.77c5.66-7.57,7.62-11.6,7.42-24.88s-9.55-25.84-20.87-35.1c3.93,4.51,6,9.38,6,14.3,0,28.11-68.71,50.88-153.71,50.88S96,81.2,96,53.09C96,48.17,98.12,43.3,102.05,38.79Z"/></g><path id="path22821" class="cls-5" d="M392.26,70.61c-4,1.3-7.46,3.73-11.1,5.76-14.5,8.08-32.07,9.64-48.86,12-6.44.89-12.91,1.94-18.9,4.27s-11.53,6-14.68,11.21a18.79,18.79,0,0,0-1.39,17,21.57,21.57,0,0,0,13.41,11.82c-.81,20.1,8.94,40.26,25.77,53.28,10.86,8.41,24.2,13.78,37.73,18s27.47,7.44,40.8,12.15c11.64,4.11,22.88,9.42,32.21,16.9s16.68,17.28,19.34,28.32c2.42,10,1,20.58,3.74,30.5a26.76,26.76,0,0,0,8,13.29,20.6,20.6,0,0,0,7.14,4,17.93,17.93,0,0,0,18-3.94A21.34,21.34,0,0,0,509,296.6c2.27-6.33,1.77-13.17.83-19.75-2.26-16-6.91-31.6-8.85-47.6-1.56-12.78-1.39-25.76-3.87-38.42-4.72-24.05-19-46.07-38.34-63.07A155.65,155.65,0,0,0,412.38,99.7a17.34,17.34,0,0,0,5.7-10.53,16.36,16.36,0,0,0-2.81-11.39,19.31,19.31,0,0,0-10.08-7.25,21.68,21.68,0,0,0-12.93.08"/></g></g></g></g></svg>